<svg
  width="50px"
  height="50px"
  viewBox="0 0 192 192"
  version="1.1"
  xmlns="http://www.w3.org/2000/svg"
  xmlnsXlink="http://www.w3.org/1999/xlink"
>
  <g id="Page-1" stroke="none" strokeWidth="1" fill="none" fillRule="evenodd">
    <g id="xxxhdpi/ic_launcher_APP" fillRule="nonzero" fill="#000000">
      <g id="expired_image" transform="translate(0.000000, 6.000000)">
        <path
          d="M168.488,87.9844288 C165.72,88.4474519 162.888,88.7108962 160,88.7108962 C158.032,88.7108962 156.104,88.5831656 154.192,88.3676204 C153.792,88.3197214 153.4,88.2398898 153,88.1919909 C151.456,87.9844288 149.904,87.7130014 148.392,87.3697256 C148.104,87.2978772 147.816,87.2180456 147.528,87.1461972 C146.429333,86.8694477 144.813333,86.3851362 142.68,85.6932625 L168,132.618265 L168,156.567738 L24,156.567738 L24,132.618265 L50.344,106.329726 C53.456,103.224277 58.544,103.224277 61.656,106.329726 L82.344,126.974172 C85.456,130.07962 89.904,129.568698 92.232,125.848547 C114.925333,93.2719404 126.36,76.8851783 126.536,76.6882604 C124,74.3092793 119.696,69.7029972 117.68,66.8849425 C116.688,65.5118393 115.784,64.0828541 114.936,62.6299193 C114.024,61.0572372 113.312,59.6362351 112.656,58.1833004 C112.576,58.0236372 112.496,57.8719572 112.424,57.7122941 C111.832,56.3551572 111.296,54.9581046 110.816,53.5371025 C110.72,53.2736583 110.616,53.0102141 110.52,52.7308035 C110.096,51.4135825 109.752,50.0564456 109.424,48.6913256 C109.344,48.3081341 109.224,47.9488919 109.144,47.5577172 C108.856,46.232513 108.672,44.8753762 108.488,43.5182393 C108.432,43.0791656 108.352,42.6800077 108.296,42.2409341 C108.104,40.4766562 108,38.6644793 108,36.8203698 C108,31.2481256 108.904,25.8914267 110.528,20.8540541 L16,20.8540541 C7.2,20.8540541 0,28.0388962 0,36.8203698 L0,164.550896 C0,173.33237 7.2,180.517212 16,180.517212 L176,180.517212 C184.8,180.517212 192,173.33237 192,164.550896 L192,77.6622056 C186.112,82.2605046 179.152,85.4936835 171.624,87.2260288 C170.576,87.4814898 169.56,87.8087993 168.488,87.9844288 Z M40,84.7193172 C31.16,84.7193172 24,77.5664077 24,68.7530014 C24,59.9395951 31.16,52.7866856 40,52.7866856 C48.84,52.7866856 56,59.9316119 56,68.7530014 C56,77.5743909 48.84,84.7193172 40,84.7193172 Z"
          id="Shape"
        />
        <path
          d="M141.71115,63.4242261 L158.585786,46.5495894 L158.585786,46.5495894 C159.366835,45.7685408 160.633165,45.7685408 161.414214,46.5495894 L178.28885,63.4242261 L178.28885,63.4242261 C179.069899,64.2052746 180.336229,64.2052746 181.117277,63.4242261 L191.424226,53.1172773 L191.424226,53.1172773 C192.205275,52.3362288 192.205275,51.0698988 191.424226,50.2888502 L174.549589,33.4142136 L174.549589,33.4142136 C173.768541,32.633165 173.768541,31.366835 174.549589,30.5857864 L191.424226,13.7111498 L191.424226,13.7111498 C192.205275,12.9301012 192.205275,11.6637712 191.424226,10.8827227 L181.117277,0.575773937 L181.117277,0.575773937 C180.336229,-0.205274646 179.069899,-0.205274646 178.28885,0.575773937 L161.414214,17.4504106 L161.414214,17.4504106 C160.633165,18.2314592 159.366835,18.2314592 158.585786,17.4504106 L141.71115,0.575773937 L141.71115,0.575773937 C140.930101,-0.205274646 139.663771,-0.205274646 138.882723,0.575773937 L128.575774,10.8827227 L128.575774,10.8827227 C127.794725,11.6637712 127.794725,12.9301012 128.575774,13.7111498 L145.450411,30.5857864 L145.450411,30.5857864 C146.231459,31.366835 146.231459,32.633165 145.450411,33.4142136 L128.575774,50.2888502 L128.575774,50.2888502 C127.794725,51.0698988 127.794725,52.3362288 128.575774,53.1172773 L138.882723,63.4242261 L138.882723,63.4242261 C139.663771,64.2052746 140.930101,64.2052746 141.71115,63.4242261 Z"
          id="Shape"
        />
      </g>
    </g>
  </g>
</svg>
