<svg xmlns="http://www.w3.org/2000/svg" width="20" height="18" viewBox="0 0 20 18">
    <path d="M19.914 16.99L10.607.354A.694.694 0 0 0 10 0a.694.694 0 0 0-.607.353L.086 16.99a.671.671 0 0 0 .01.675.695.695 0 0 0 .596.334h18.616a.695.695 0 0 0 .596-.334.671.671 0 0 0 .01-.675zm-18.05-.352L10 2.093l8.137 14.545H1.863zm7.268-9.793v4.922a.86.86 0 0 0 .868.853.86.86 0 0 0 .868-.853V6.845A.86.86 0 0 0 10 5.992a.86.86 0 0 0-.868.853zM10 13.62a.907.907 0 0 0-.914.899c0 .495.41.898.914.898a.907.907 0 0 0 .914-.898.907.907 0 0 0-.914-.9z"/>
</svg>
