<?xml version="1.0" encoding="UTF-8"?>
<svg width="16px" height="14px" viewBox="0 0 16 14" version="1.1" xmlns="http://www.w3.org/2000/svg" xmlns:xlink="http://www.w3.org/1999/xlink">
    <!-- Generator: Sketch 51.1 (57501) - http://www.bohemiancoding.com/sketch -->
    <title>envelope4</title>
    <desc>Created with Sketch.</desc>
    <defs></defs>
    <g id="Page-1" stroke="none" stroke-width="1" fill="none" fill-rule="evenodd" opacity="0.38">
        <g id="Search-4.0-Copy-17" transform="translate(-1243.000000, -25.000000)" fill="#000000">
            <g id="envelope4" transform="translate(1243.000000, 26.000000)">
                <g id="Group" fill="none">
                    <path d="M1.53567123,3.68452632 C1.73808219,3.82168421 2.34816438,4.22915789 3.3660274,4.90663158 C4.38389041,5.58410526 5.16361644,6.10578947 5.70531507,6.47157895 C5.76482192,6.51168421 5.89128767,6.59884211 6.08471233,6.73315789 C6.27813699,6.86757895 6.43890411,6.97631579 6.56679452,7.05915789 C6.69479452,7.142 6.84953425,7.23494737 7.03112329,7.33778947 C7.21271233,7.44063158 7.38389041,7.51789474 7.54454795,7.56915789 C7.70531507,7.62073684 7.85413699,7.64631579 7.9910137,7.64631579 L8,7.64631579 L8.0089863,7.64631579 C8.14586301,7.64631579 8.29468493,7.62073684 8.45545205,7.56915789 C8.61610959,7.51789474 8.78739726,7.44052632 8.96887671,7.33778947 C9.15035616,7.23484211 9.30509589,7.142 9.43309589,7.05915789 C9.56109589,6.97631579 9.72175342,6.86757895 9.91517808,6.73315789 C10.1086027,6.59873684 10.2351781,6.51168421 10.2946849,6.47157895 C10.8421918,6.10568421 12.2351781,5.17663158 14.4732055,3.68431579 C14.907726,3.39284211 15.2706849,3.04115789 15.562411,2.62947368 C15.8542466,2.218 16,1.78631579 16,1.33463158 C16,0.957263158 15.8585205,0.634210526 15.5757808,0.365473684 C15.2930411,0.0967368421 14.958137,-0.0375789474 14.5713973,-0.0375789474 L1.42849315,-0.0375789474 C0.970191781,-0.0375789474 0.617534247,0.111052632 0.370520548,0.408315789 C0.123506849,0.705684211 0,1.07736842 0,1.52326316 C0,1.88347368 0.163726027,2.27378947 0.491068493,2.694 C0.818410959,3.11421053 1.16668493,3.44442105 1.53567123,3.68452632 L1.53567123,3.68452632 Z" id="Shape" fill="#000000"></path>
                    <path d="M15.1070685,4.60210526 C13.1548493,5.87126316 11.6725479,6.85757895 10.6608219,7.56084211 C10.3215342,7.80094737 10.0462466,7.98831579 9.83484932,8.12252632 C9.62356164,8.25694737 9.34235616,8.39410526 8.99112329,8.53421053 C8.64,8.67431579 8.31265753,8.74431579 8.00909589,8.74431579 L8,8.74431579 L7.9910137,8.74431579 C7.68745205,8.74431579 7.36,8.67431579 7.00887671,8.53421053 C6.65775342,8.39410526 6.37643836,8.25694737 6.16515068,8.12252632 C5.95386301,7.98831579 5.67857534,7.80094737 5.33928767,7.56084211 C4.53567123,6.99484211 3.05654795,6.00852632 0.901808219,4.60210526 C0.562520548,4.38494737 0.261917808,4.13610526 0,3.856 L0,10.6652632 C0,11.0427368 0.139835616,11.3656842 0.419616438,11.6344211 C0.69939726,11.9032632 1.03572603,12.0375789 1.42860274,12.0375789 L14.5715068,12.0375789 C14.964274,12.0375789 15.3006027,11.9032632 15.5803836,11.6344211 C15.860274,11.3655789 16,11.0427368 16,10.6652632 L16,3.856 C15.744,4.13031579 15.4464658,4.37915789 15.1070685,4.60210526 L15.1070685,4.60210526 Z" id="Shape" fill="#000000"></path>
                </g>
            </g>
        </g>
    </g>
</svg>