<?xml version="1.0" encoding="UTF-8"?>
<svg width="15px" height="16px" viewBox="0 0 15 16" version="1.1" xmlns="http://www.w3.org/2000/svg" xmlns:xlink="http://www.w3.org/1999/xlink">
    <!-- Generator: Sketch 51.1 (57501) - http://www.bohemiancoding.com/sketch -->
    <title>bell13</title>
    <desc>Created with Sketch.</desc>
    <defs></defs>
    <g id="Page-1" stroke="none" stroke-width="1" fill="none" fill-rule="evenodd" opacity="0.38">
        <g id="Search-4.0-Copy-17" transform="translate(-1283.000000, -24.000000)" fill="#000000">
            <g id="bell13" transform="translate(1283.000000, 24.000000)">
                <path d="M11.525625,4.57139726 C11.525625,3.58926027 11.2381985,2.80953425 10.6632353,2.23210959 C10.0879412,1.65468493 9.29713235,1.30641096 8.29069853,1.18739726 C8.33845588,1.08032877 8.3625,0.970191781 8.3625,0.85709589 C8.3625,0.618958904 8.27867647,0.416438356 8.11091912,0.249863014 C7.94327206,0.0831780822 7.73955882,-0.000109589041 7.49988971,-0.000109589041 C7.26033088,-0.000109589041 7.05661765,0.0831780822 6.88886029,0.249863014 C6.72110294,0.416547945 6.63727941,0.618958904 6.63727941,0.85709589 C6.63727941,0.970191781 6.66121324,1.08021918 6.70919118,1.18739726 C5.70275735,1.30652055 4.91194853,1.65468493 4.336875,2.23210959 C3.76180147,2.80953425 3.64536924,3.60647706 3.47426471,4.57139726 C3.18375,6.20971446 3.18375,7.61457534 2.60261029,9.02224658 C2.02147059,10.4300274 1.49272059,11.6131507 0.354485294,12.5715068 C0.354485294,12.8809863 0.468308824,13.1488219 0.695955882,13.3750137 C0.923602941,13.6012055 1.19316176,13.7143014 1.50474265,13.7143014 L5.19959559,13.7143014 C5.19959559,14.3453151 5.42415441,14.8840548 5.87349265,15.330411 C6.32283088,15.7767671 6.86503676,16 7.5,16 C8.13507353,16 8.67727941,15.7767671 9.12639706,15.330411 C9.57573529,14.8840548 9.80040441,14.3453151 9.80040441,13.7143014 L13.4952574,13.7143014 C13.8067279,13.7143014 14.0765074,13.6013151 14.3039338,13.3750137 C14.5315809,13.1488219 14.6454044,12.8809863 14.6454044,12.5715068 C13.5073897,11.6131507 12.9785294,10.4300274 12.3970588,9.02224658 C11.8161397,7.61457534 11.525625,6.1309589 11.525625,4.57139726 Z" id="Shape"></path>
            </g>
        </g>
    </g>
</svg>