<?xml version="1.0" encoding="UTF-8"?>
<svg width="16px" height="16px" viewBox="0 0 16 16" version="1.1" xmlns="http://www.w3.org/2000/svg" xmlns:xlink="http://www.w3.org/1999/xlink">
    <!-- Generator: Sketch 51.1 (57501) - http://www.bohemiancoding.com/sketch -->
    <title>user77</title>
    <desc>Created with Sketch.</desc>
    <defs></defs>
    <g id="Page-1" stroke="none" stroke-width="1" fill="none" fill-rule="evenodd" opacity="0.38">
        <g id="Search-4.0-Copy-17" transform="translate(-1321.000000, -24.000000)" fill="#000000">
            <g id="user77" transform="translate(1322.000000, 24.000000)">
                <g id="Group" fill="none">
                    <path d="M6.99987719,8 C8.06068421,8 8.96614035,7.61193651 9.71636842,6.83606349 C10.4668421,6.06019048 10.8420175,5.12393651 10.8420175,4.0271746 C10.8420175,2.93053968 10.4668421,1.99428571 9.71636842,1.21828571 C8.96601754,0.442412698 8.0604386,0.0544761905 6.99987719,0.0544761905 C5.93931579,0.0544761905 5.03373684,0.442412698 4.28338596,1.21828571 C3.53291228,1.99428571 3.15773684,2.93053968 3.15773684,4.0271746 C3.15773684,5.12393651 3.53291228,6.06019048 4.28338596,6.83606349 C5.03385965,7.61193651 5.93931579,8 6.99987719,8 L6.99987719,8 Z" id="Shape" fill="#000000"></path>
                    <path d="M14.0085965,12.1951746 C13.9851404,11.8468571 13.9384737,11.4709841 13.8684737,11.0674286 C13.7984737,10.663873 13.7099298,10.2897778 13.6032105,9.94488889 C13.4964912,9.60012698 13.3530526,9.26387302 13.1728947,8.93625397 C12.9928596,8.60863492 12.7860526,8.32926984 12.5524737,8.09815873 C12.3188947,7.86704762 12.0338596,7.68266667 11.6971228,7.5447619 C11.3601404,7.40685714 10.9882807,7.33777778 10.5814211,7.33777778 C10.5213684,7.33777778 10.3812456,7.41193651 10.1611754,7.56025397 C9.94110526,7.70857143 9.69266667,7.87415873 9.41585965,8.05688889 C9.13905263,8.23949206 8.77873684,8.40520635 8.3352807,8.55326984 C7.89170175,8.7015873 7.44652632,8.77574603 6.99950877,8.77574603 C6.55261404,8.77574603 6.1074386,8.7015873 5.66385965,8.55326984 C5.22040351,8.40520635 4.86008772,8.23949206 4.5832807,8.05688889 C4.30647368,7.87415873 4.05803509,7.70857143 3.83796491,7.56025397 C3.61777193,7.41193651 3.47777193,7.33777778 3.4177193,7.33777778 C3.01085965,7.33777778 2.639,7.40685714 2.30214035,7.5447619 C1.9652807,7.68266667 1.68012281,7.8671746 1.44666667,8.09815873 C1.21321053,8.32926984 1.00640351,8.60863492 0.826368421,8.93625397 C0.646333333,9.26387302 0.502894737,9.60025397 0.396175439,9.94488889 C0.28945614,10.2897778 0.201035088,10.663873 0.131035088,11.0674286 C0.0609122807,11.4709841 0.014245614,11.8467302 -0.0090877193,12.1951746 C-0.0324210526,12.543619 -0.0440877193,12.9004444 -0.0440877193,13.2660317 C-0.0440877193,14.0935873 0.199438596,14.7471746 0.686368421,15.2265397 C1.17329825,15.7057778 1.82036842,15.9453968 2.62745614,15.9453968 L11.3722982,15.9453968 C12.179386,15.9453968 12.8263333,15.7057778 13.313386,15.2265397 C13.8004386,14.7471746 14.0438421,14.0937143 14.0438421,13.2660317 C14.0438421,12.9004444 14.0321754,12.5434921 14.0085965,12.1951746 L14.0085965,12.1951746 Z" id="Shape" fill="#000000"></path>
                </g>
            </g>
        </g>
    </g>
</svg>